M48
; DRILL file {KiCad (6.0.8)} date Wed Nov  9 11:36:16 2022
; FORMAT={-:-/ absolute / metric / decimal}
; #@! TF.CreationDate,2022-11-09T11:36:16+07:00
; #@! TF.GenerationSoftware,Kicad,Pcbnew,(6.0.8)
; #@! TF.FileFunction,MixedPlating,1,2
FMAT,2
METRIC
; #@! TA.AperFunction,Plated,PTH,ComponentDrill
T1C0.750
; #@! TA.AperFunction,Plated,PTH,ComponentDrill
T2C1.000
; #@! TA.AperFunction,Plated,PTH,ViaDrill
T3C1.100
; #@! TA.AperFunction,Plated,PTH,ComponentDrill
T4C1.200
; #@! TA.AperFunction,Plated,PTH,ComponentDrill
T5C1.300
; #@! TA.AperFunction,Plated,PTH,ComponentDrill
T6C1.800
; #@! TA.AperFunction,Plated,PTH,ComponentDrill
T7C2.500
; #@! TA.AperFunction,Plated,PTH,ComponentDrill
T8C3.200
; #@! TA.AperFunction,Plated,PTH,ComponentDrill
T9C4.500
%
G90
G05
T1
X148.59Y-57.15
X148.59Y-59.69
X149.86Y-58.42
T2
X38.26Y-46.12
X38.26Y-96.12
X58.26Y-46.12
X58.26Y-96.12
X62.23Y-86.36
X63.5Y-52.07
X63.5Y-59.69
X63.5Y-81.28
X66.04Y-81.28
X66.04Y-91.44
X66.04Y-93.98
X68.58Y-54.61
X68.58Y-57.15
X68.58Y-81.28
X69.596Y-95.758
X69.596Y-103.378
X69.85Y-86.36
X73.914Y-74.168
X73.914Y-76.708
X73.914Y-79.248
X75.819Y-60.198
X75.819Y-108.458
X77.684Y-46.436
X78.359Y-60.198
X78.359Y-108.458
X78.755Y-116.84
X80.184Y-46.436
X80.899Y-60.198
X80.899Y-108.458
X81.295Y-116.84
X82.684Y-46.436
X83.439Y-60.198
X83.439Y-108.458
X83.835Y-116.84
X85.979Y-60.198
X85.979Y-108.458
X88.519Y-60.198
X88.519Y-108.458
X91.059Y-108.458
X92.964Y-46.436
X93.599Y-60.198
X93.599Y-108.458
X95.464Y-46.436
X96.139Y-60.198
X97.659Y-108.458
X97.964Y-46.436
X98.679Y-60.198
X100.199Y-108.458
X101.219Y-60.198
X102.739Y-108.458
X103.759Y-60.198
X105.279Y-108.458
X106.299Y-60.198
X107.819Y-108.458
X108.204Y-46.436
X108.839Y-60.198
X110.359Y-108.458
X110.704Y-46.436
X111.379Y-60.198
X112.899Y-108.458
X113.204Y-46.436
X115.439Y-108.458
X117.979Y-108.458
X118.364Y-55.118
X118.364Y-62.738
X120.519Y-108.458
X123.444Y-46.436
X123.444Y-55.118
X123.444Y-62.738
X125.944Y-46.436
X128.444Y-46.436
X128.778Y-58.161
X128.778Y-60.701
X138.684Y-46.436
X138.684Y-55.128
X138.684Y-62.728
X141.184Y-46.436
X143.684Y-46.436
X145.288Y-63.5
X152.908Y-63.5
T3
X58.42Y-109.982
X58.42Y-112.776
X63.5Y-66.04
X63.5Y-68.58
X66.294Y-98.044
X66.954Y-48.463
X69.596Y-90.17
X70.815Y-110.693
X72.898Y-97.282
X76.2Y-66.04
X76.2Y-68.58
X78.74Y-120.65
X78.74Y-123.19
X78.994Y-103.632
X79.756Y-53.34
X86.36Y-65.278
X91.948Y-97.028
X91.948Y-115.316
X93.98Y-73.406
X94.234Y-65.278
X95.504Y-97.028
X95.504Y-115.316
X99.568Y-56.388
X100.584Y-73.406
X102.743Y-104.902
X108.458Y-104.902
X117.094Y-80.264
X117.094Y-82.804
X117.094Y-85.344
X124.46Y-65.786
X131.572Y-65.786
X132.334Y-80.264
X132.334Y-82.804
X132.334Y-85.344
X149.733Y-48.468
T4
X86.364Y-68.971
X88.904Y-68.971
X91.444Y-68.971
X93.984Y-68.971
X96.524Y-68.971
X99.064Y-68.971
X101.604Y-68.971
X104.144Y-68.971
X106.684Y-68.971
X109.224Y-68.971
X111.764Y-68.971
X114.304Y-68.971
X116.844Y-68.971
X119.384Y-68.971
X121.924Y-68.971
X124.464Y-68.971
T5
X63.5Y-121.92
X68.5Y-121.92
T7
X80.865Y-68.971
X80.865Y-99.971
X155.863Y-99.971
X155.864Y-68.971
T8
X35.56Y-30.48
X35.56Y-121.92
X162.56Y-30.48
X162.56Y-121.92
T9
X44.66Y-114.3
X51.86Y-114.3
T6
G00X75.784Y-39.586
M15
G01X75.784Y-39.286
M16
G05
G00X84.584Y-39.586
M15
G01X84.584Y-39.286
M16
G05
G00X91.064Y-39.586
M15
G01X91.064Y-39.286
M16
G05
G00X99.864Y-39.586
M15
G01X99.864Y-39.286
M16
G05
G00X106.304Y-39.586
M15
G01X106.304Y-39.286
M16
G05
G00X115.104Y-39.586
M15
G01X115.104Y-39.286
M16
G05
G00X121.544Y-39.586
M15
G01X121.544Y-39.286
M16
G05
G00X130.344Y-39.586
M15
G01X130.344Y-39.286
M16
G05
G00X136.784Y-39.586
M15
G01X136.784Y-39.286
M16
G05
G00X145.584Y-39.586
M15
G01X145.584Y-39.286
M16
G05
T0
M30
