%TF.GenerationSoftware,KiCad,Pcbnew,(6.0.8)*%
%TF.CreationDate,2022-11-09T11:36:30+07:00*%
%TF.ProjectId,SPEED_CONTROL,53504545-445f-4434-9f4e-54524f4c2e6b,rev?*%
%TF.SameCoordinates,Original*%
%TF.FileFunction,Soldermask,Bot*%
%TF.FilePolarity,Negative*%
%FSLAX46Y46*%
G04 Gerber Fmt 4.6, Leading zero omitted, Abs format (unit mm)*
G04 Created by KiCad (PCBNEW (6.0.8)) date 2022-11-09 11:36:30*
%MOMM*%
%LPD*%
G01*
G04 APERTURE LIST*
G04 Aperture macros list*
%AMRoundRect*
0 Rectangle with rounded corners*
0 $1 Rounding radius*
0 $2 $3 $4 $5 $6 $7 $8 $9 X,Y pos of 4 corners*
0 Add a 4 corners polygon primitive as box body*
4,1,4,$2,$3,$4,$5,$6,$7,$8,$9,$2,$3,0*
0 Add four circle primitives for the rounded corners*
1,1,$1+$1,$2,$3*
1,1,$1+$1,$4,$5*
1,1,$1+$1,$6,$7*
1,1,$1+$1,$8,$9*
0 Add four rect primitives between the rounded corners*
20,1,$1+$1,$2,$3,$4,$5,0*
20,1,$1+$1,$4,$5,$6,$7,0*
20,1,$1+$1,$6,$7,$8,$9,0*
20,1,$1+$1,$8,$9,$2,$3,0*%
G04 Aperture macros list end*
%ADD10R,1.800000X1.800000*%
%ADD11C,1.800000*%
%ADD12RoundRect,0.750000X0.750000X-1.250000X0.750000X1.250000X-0.750000X1.250000X-0.750000X-1.250000X0*%
%ADD13C,2.000000*%
%ADD14C,3.000000*%
%ADD15R,1.800000X2.600000*%
%ADD16O,1.800000X2.600000*%
%ADD17C,6.400000*%
%ADD18R,2.500000X3.660000*%
%ADD19O,2.500000X3.660000*%
%ADD20R,1.700000X1.700000*%
%ADD21O,2.660000X1.700000*%
%ADD22R,2.000000X2.000000*%
%ADD23O,2.500000X1.660000*%
%ADD24RoundRect,1.500000X1.500000X2.500000X-1.500000X2.500000X-1.500000X-2.500000X1.500000X-2.500000X0*%
%ADD25O,6.000000X8.000000*%
%ADD26O,3.000000X5.000000*%
%ADD27R,1.300000X1.300000*%
%ADD28C,1.300000*%
%ADD29O,1.700000X2.500000*%
%ADD30R,2.500000X2.300000*%
%ADD31RoundRect,0.150000X0.150000X-0.825000X0.150000X0.825000X-0.150000X0.825000X-0.150000X-0.825000X0*%
%ADD32R,3.500000X2.300000*%
%ADD33O,1.600000X2.500000*%
%ADD34RoundRect,0.237500X-0.300000X-0.237500X0.300000X-0.237500X0.300000X0.237500X-0.300000X0.237500X0*%
%ADD35RoundRect,0.250000X-0.400000X-1.450000X0.400000X-1.450000X0.400000X1.450000X-0.400000X1.450000X0*%
%ADD36RoundRect,0.237500X0.300000X0.237500X-0.300000X0.237500X-0.300000X-0.237500X0.300000X-0.237500X0*%
%ADD37RoundRect,0.237500X0.237500X-0.300000X0.237500X0.300000X-0.237500X0.300000X-0.237500X-0.300000X0*%
%ADD38RoundRect,0.250000X0.400000X1.450000X-0.400000X1.450000X-0.400000X-1.450000X0.400000X-1.450000X0*%
G04 APERTURE END LIST*
D10*
%TO.C,RV2*%
X138684000Y-46436000D03*
D11*
X141184000Y-46436000D03*
X143684000Y-46436000D03*
D12*
X136784000Y-39436000D03*
X145584000Y-39436000D03*
%TD*%
D11*
%TO.C,R2*%
X63500000Y-52070000D03*
X63500000Y-59690000D03*
%TD*%
D13*
%TO.C,R3*%
X118364000Y-55118000D03*
X118364000Y-62738000D03*
%TD*%
D14*
%TO.C,DS1*%
X80864900Y-99971200D03*
X80864900Y-68970500D03*
X155863480Y-99971200D03*
X155864000Y-68970500D03*
D15*
X86364000Y-68970500D03*
D16*
X88904000Y-68970500D03*
X91444000Y-68970500D03*
X93984000Y-68970500D03*
X96524000Y-68970500D03*
X99064000Y-68970500D03*
X101604000Y-68970500D03*
X104144000Y-68970500D03*
X106684000Y-68970500D03*
X109224000Y-68970500D03*
X111764000Y-68970500D03*
X114304000Y-68970500D03*
X116844000Y-68970500D03*
X119384000Y-68970500D03*
X121924000Y-68970500D03*
X124464000Y-68970500D03*
%TD*%
D17*
%TO.C,H1*%
X162560000Y-30480000D03*
%TD*%
D13*
%TO.C,R5*%
X62230000Y-86360000D03*
X69850000Y-86360000D03*
%TD*%
D18*
%TO.C,J3*%
X63500000Y-121920000D03*
D19*
X68500000Y-121920000D03*
%TD*%
D17*
%TO.C,H2*%
X162560000Y-121920000D03*
%TD*%
%TO.C,H4*%
X35560000Y-30480000D03*
%TD*%
D20*
%TO.C,J2*%
X66040000Y-91440000D03*
D21*
X66040000Y-93980000D03*
%TD*%
D11*
%TO.C,R6*%
X69596000Y-103378000D03*
D13*
X69596000Y-95758000D03*
%TD*%
D11*
%TO.C,R4*%
X145288000Y-63500000D03*
X152908000Y-63500000D03*
%TD*%
D13*
%TO.C,J5*%
X63500000Y-81280000D03*
X66040000Y-81280000D03*
X68580000Y-81280000D03*
%TD*%
D22*
%TO.C,D3*%
X68580000Y-54610000D03*
D13*
X68580000Y-57150000D03*
%TD*%
D23*
%TO.C,RV6*%
X73914000Y-74168000D03*
X73914000Y-76708000D03*
X73914000Y-79248000D03*
%TD*%
D22*
%TO.C,BZ1*%
X138684000Y-62728000D03*
D13*
X138684000Y-55128000D03*
%TD*%
D24*
%TO.C,J4*%
X51860000Y-114300000D03*
D25*
X44660000Y-114300000D03*
%TD*%
D10*
%TO.C,RV1*%
X92964000Y-46436000D03*
D11*
X95464000Y-46436000D03*
X97964000Y-46436000D03*
D12*
X99864000Y-39436000D03*
X91064000Y-39436000D03*
%TD*%
D13*
%TO.C,R1*%
X123444000Y-55118000D03*
X123444000Y-62738000D03*
%TD*%
D10*
%TO.C,RV3*%
X123444000Y-46436000D03*
D11*
X125944000Y-46436000D03*
X128444000Y-46436000D03*
D12*
X130344000Y-39436000D03*
X121544000Y-39436000D03*
%TD*%
D10*
%TO.C,RV5*%
X77684000Y-46436000D03*
D11*
X80184000Y-46436000D03*
X82684000Y-46436000D03*
D12*
X84584000Y-39436000D03*
X75784000Y-39436000D03*
%TD*%
D22*
%TO.C,D1*%
X128778000Y-58161000D03*
D13*
X128778000Y-60701000D03*
%TD*%
D26*
%TO.C,U2*%
X38260000Y-96120000D03*
X58260000Y-96120000D03*
X38260000Y-46120000D03*
X58260000Y-46120000D03*
%TD*%
D17*
%TO.C,H3*%
X35560000Y-121920000D03*
%TD*%
D27*
%TO.C,Q1*%
X148590000Y-57150000D03*
D28*
X149860000Y-58420000D03*
X148590000Y-59690000D03*
%TD*%
D10*
%TO.C,RV4*%
X108204000Y-46436000D03*
D11*
X110704000Y-46436000D03*
X113204000Y-46436000D03*
D12*
X106304000Y-39436000D03*
X115104000Y-39436000D03*
%TD*%
D29*
%TO.C,J1*%
X78755000Y-116840000D03*
X81295000Y-116840000D03*
X83835000Y-116840000D03*
%TD*%
D30*
%TO.C,D4*%
X51190000Y-38100000D03*
X55490000Y-38100000D03*
%TD*%
D31*
%TO.C,U1*%
X65405000Y-109663000D03*
X64135000Y-109663000D03*
X62865000Y-109663000D03*
X61595000Y-109663000D03*
X61595000Y-104713000D03*
X62865000Y-104713000D03*
X64135000Y-104713000D03*
X65405000Y-104713000D03*
%TD*%
D32*
%TO.C,D5*%
X68740000Y-114300000D03*
X63340000Y-114300000D03*
%TD*%
D33*
%TO.C,A1*%
X111379000Y-60198000D03*
X108839000Y-60198000D03*
X106299000Y-60198000D03*
X103759000Y-60198000D03*
X101219000Y-60198000D03*
X98679000Y-60198000D03*
X96139000Y-60198000D03*
X93599000Y-60198000D03*
X88519000Y-60198000D03*
X85979000Y-60198000D03*
X83439000Y-60198000D03*
X80899000Y-60198000D03*
X78359000Y-60198000D03*
X75819000Y-60198000D03*
X75819000Y-108458000D03*
X78359000Y-108458000D03*
X80899000Y-108458000D03*
X83439000Y-108458000D03*
X85979000Y-108458000D03*
X88519000Y-108458000D03*
X91059000Y-108458000D03*
X93599000Y-108458000D03*
X97659000Y-108458000D03*
X100199000Y-108458000D03*
X102739000Y-108458000D03*
X105279000Y-108458000D03*
X107819000Y-108458000D03*
X110359000Y-108458000D03*
X112899000Y-108458000D03*
X115439000Y-108458000D03*
X117979000Y-108458000D03*
X120519000Y-108458000D03*
%TD*%
D34*
%TO.C,C1*%
X69749500Y-108204000D03*
X71474500Y-108204000D03*
%TD*%
D35*
%TO.C,F2*%
X40955000Y-38100000D03*
X45405000Y-38100000D03*
%TD*%
D36*
%TO.C,C2*%
X71474500Y-92456000D03*
X69749500Y-92456000D03*
%TD*%
D30*
%TO.C,D2*%
X47870000Y-96520000D03*
X43570000Y-96520000D03*
%TD*%
D37*
%TO.C,C3*%
X66294000Y-102208500D03*
X66294000Y-100483500D03*
%TD*%
D38*
%TO.C,F1*%
X45405000Y-104140000D03*
X40955000Y-104140000D03*
%TD*%
M02*
