%TF.GenerationSoftware,KiCad,Pcbnew,(6.0.8)*%
%TF.CreationDate,2022-11-09T11:36:30+07:00*%
%TF.ProjectId,SPEED_CONTROL,53504545-445f-4434-9f4e-54524f4c2e6b,rev?*%
%TF.SameCoordinates,Original*%
%TF.FileFunction,Legend,Bot*%
%TF.FilePolarity,Positive*%
%FSLAX46Y46*%
G04 Gerber Fmt 4.6, Leading zero omitted, Abs format (unit mm)*
G04 Created by KiCad (PCBNEW (6.0.8)) date 2022-11-09 11:36:30*
%MOMM*%
%LPD*%
G01*
G04 APERTURE LIST*
%ADD10C,0.150000*%
%ADD11C,0.120000*%
G04 APERTURE END LIST*
D10*
%TO.C,D4*%
X54078095Y-34742380D02*
X54078095Y-33742380D01*
X53840000Y-33742380D01*
X53697142Y-33790000D01*
X53601904Y-33885238D01*
X53554285Y-33980476D01*
X53506666Y-34170952D01*
X53506666Y-34313809D01*
X53554285Y-34504285D01*
X53601904Y-34599523D01*
X53697142Y-34694761D01*
X53840000Y-34742380D01*
X54078095Y-34742380D01*
X52649523Y-34075714D02*
X52649523Y-34742380D01*
X52887619Y-33694761D02*
X53125714Y-34409047D01*
X52506666Y-34409047D01*
%TO.C,U1*%
X66352380Y-106426095D02*
X67161904Y-106426095D01*
X67257142Y-106473714D01*
X67304761Y-106521333D01*
X67352380Y-106616571D01*
X67352380Y-106807047D01*
X67304761Y-106902285D01*
X67257142Y-106949904D01*
X67161904Y-106997523D01*
X66352380Y-106997523D01*
X67352380Y-107997523D02*
X67352380Y-107426095D01*
X67352380Y-107711809D02*
X66352380Y-107711809D01*
X66495238Y-107616571D01*
X66590476Y-107521333D01*
X66638095Y-107426095D01*
%TO.C,D5*%
X66778095Y-111752380D02*
X66778095Y-110752380D01*
X66540000Y-110752380D01*
X66397142Y-110800000D01*
X66301904Y-110895238D01*
X66254285Y-110990476D01*
X66206666Y-111180952D01*
X66206666Y-111323809D01*
X66254285Y-111514285D01*
X66301904Y-111609523D01*
X66397142Y-111704761D01*
X66540000Y-111752380D01*
X66778095Y-111752380D01*
X65301904Y-110752380D02*
X65778095Y-110752380D01*
X65825714Y-111228571D01*
X65778095Y-111180952D01*
X65682857Y-111133333D01*
X65444761Y-111133333D01*
X65349523Y-111180952D01*
X65301904Y-111228571D01*
X65254285Y-111323809D01*
X65254285Y-111561904D01*
X65301904Y-111657142D01*
X65349523Y-111704761D01*
X65444761Y-111752380D01*
X65682857Y-111752380D01*
X65778095Y-111704761D01*
X65825714Y-111657142D01*
%TO.C,A1*%
X110823285Y-56554666D02*
X110347095Y-56554666D01*
X110918523Y-56840380D02*
X110585190Y-55840380D01*
X110251857Y-56840380D01*
X109394714Y-56840380D02*
X109966142Y-56840380D01*
X109680428Y-56840380D02*
X109680428Y-55840380D01*
X109775666Y-55983238D01*
X109870904Y-56078476D01*
X109966142Y-56126095D01*
%TO.C,C1*%
X70778666Y-109991142D02*
X70826285Y-110038761D01*
X70969142Y-110086380D01*
X71064380Y-110086380D01*
X71207238Y-110038761D01*
X71302476Y-109943523D01*
X71350095Y-109848285D01*
X71397714Y-109657809D01*
X71397714Y-109514952D01*
X71350095Y-109324476D01*
X71302476Y-109229238D01*
X71207238Y-109134000D01*
X71064380Y-109086380D01*
X70969142Y-109086380D01*
X70826285Y-109134000D01*
X70778666Y-109181619D01*
X69826285Y-110086380D02*
X70397714Y-110086380D01*
X70112000Y-110086380D02*
X70112000Y-109086380D01*
X70207238Y-109229238D01*
X70302476Y-109324476D01*
X70397714Y-109372095D01*
%TO.C,F2*%
X43513333Y-34218571D02*
X43846666Y-34218571D01*
X43846666Y-34742380D02*
X43846666Y-33742380D01*
X43370476Y-33742380D01*
X43037142Y-33837619D02*
X42989523Y-33790000D01*
X42894285Y-33742380D01*
X42656190Y-33742380D01*
X42560952Y-33790000D01*
X42513333Y-33837619D01*
X42465714Y-33932857D01*
X42465714Y-34028095D01*
X42513333Y-34170952D01*
X43084761Y-34742380D01*
X42465714Y-34742380D01*
%TO.C,C2*%
X73572666Y-92813142D02*
X73620285Y-92860761D01*
X73763142Y-92908380D01*
X73858380Y-92908380D01*
X74001238Y-92860761D01*
X74096476Y-92765523D01*
X74144095Y-92670285D01*
X74191714Y-92479809D01*
X74191714Y-92336952D01*
X74144095Y-92146476D01*
X74096476Y-92051238D01*
X74001238Y-91956000D01*
X73858380Y-91908380D01*
X73763142Y-91908380D01*
X73620285Y-91956000D01*
X73572666Y-92003619D01*
X73191714Y-92003619D02*
X73144095Y-91956000D01*
X73048857Y-91908380D01*
X72810761Y-91908380D01*
X72715523Y-91956000D01*
X72667904Y-92003619D01*
X72620285Y-92098857D01*
X72620285Y-92194095D01*
X72667904Y-92336952D01*
X73239333Y-92908380D01*
X72620285Y-92908380D01*
%TO.C,D2*%
X46458095Y-93972380D02*
X46458095Y-92972380D01*
X46220000Y-92972380D01*
X46077142Y-93020000D01*
X45981904Y-93115238D01*
X45934285Y-93210476D01*
X45886666Y-93400952D01*
X45886666Y-93543809D01*
X45934285Y-93734285D01*
X45981904Y-93829523D01*
X46077142Y-93924761D01*
X46220000Y-93972380D01*
X46458095Y-93972380D01*
X45505714Y-93067619D02*
X45458095Y-93020000D01*
X45362857Y-92972380D01*
X45124761Y-92972380D01*
X45029523Y-93020000D01*
X44981904Y-93067619D01*
X44934285Y-93162857D01*
X44934285Y-93258095D01*
X44981904Y-93400952D01*
X45553333Y-93972380D01*
X44934285Y-93972380D01*
%TO.C,C3*%
X64428666Y-101703142D02*
X64476285Y-101750761D01*
X64619142Y-101798380D01*
X64714380Y-101798380D01*
X64857238Y-101750761D01*
X64952476Y-101655523D01*
X65000095Y-101560285D01*
X65047714Y-101369809D01*
X65047714Y-101226952D01*
X65000095Y-101036476D01*
X64952476Y-100941238D01*
X64857238Y-100846000D01*
X64714380Y-100798380D01*
X64619142Y-100798380D01*
X64476285Y-100846000D01*
X64428666Y-100893619D01*
X64095333Y-100798380D02*
X63476285Y-100798380D01*
X63809619Y-101179333D01*
X63666761Y-101179333D01*
X63571523Y-101226952D01*
X63523904Y-101274571D01*
X63476285Y-101369809D01*
X63476285Y-101607904D01*
X63523904Y-101703142D01*
X63571523Y-101750761D01*
X63666761Y-101798380D01*
X63952476Y-101798380D01*
X64047714Y-101750761D01*
X64095333Y-101703142D01*
%TO.C,F1*%
X43513333Y-101418571D02*
X43846666Y-101418571D01*
X43846666Y-101942380D02*
X43846666Y-100942380D01*
X43370476Y-100942380D01*
X42465714Y-101942380D02*
X43037142Y-101942380D01*
X42751428Y-101942380D02*
X42751428Y-100942380D01*
X42846666Y-101085238D01*
X42941904Y-101180476D01*
X43037142Y-101228095D01*
D11*
%TO.C,D4*%
X49790000Y-40250000D02*
X49790000Y-35950000D01*
X49790000Y-40250000D02*
X55490000Y-40250000D01*
X49790000Y-35950000D02*
X55490000Y-35950000D01*
%TO.C,U1*%
X60940000Y-107188000D02*
X60940000Y-109138000D01*
X60940000Y-107188000D02*
X60940000Y-105238000D01*
X66060000Y-107188000D02*
X66060000Y-110638000D01*
X66060000Y-107188000D02*
X66060000Y-105238000D01*
%TO.C,D5*%
X70640000Y-116450000D02*
X63340000Y-116450000D01*
X70640000Y-112150000D02*
X63340000Y-112150000D01*
X70640000Y-112150000D02*
X70640000Y-116450000D01*
%TO.C,A1*%
X70609000Y-95508000D02*
X70609000Y-62738000D01*
X145799000Y-101598000D02*
X139449000Y-101598000D01*
X145799000Y-89918000D02*
X145799000Y-101598000D01*
X73149000Y-57528000D02*
X139449000Y-57528000D01*
X139449000Y-101598000D02*
X139449000Y-111128000D01*
X139449000Y-111128000D02*
X74799000Y-111128000D01*
X74799000Y-111128000D02*
X73149000Y-109478000D01*
X141349000Y-69848000D02*
X139449000Y-69848000D01*
X141349000Y-60708000D02*
X141349000Y-69848000D01*
X73149000Y-60198000D02*
X73149000Y-57528000D01*
X70609000Y-62738000D02*
X73149000Y-60198000D01*
X139449000Y-89918000D02*
X145799000Y-89918000D01*
X73149000Y-98048000D02*
X70609000Y-95508000D01*
X139449000Y-57528000D02*
X139449000Y-60708000D01*
X139449000Y-69848000D02*
X139449000Y-89918000D01*
X73149000Y-109478000D02*
X73149000Y-98048000D01*
X139449000Y-60708000D02*
X141349000Y-60708000D01*
%TO.C,C1*%
X70465733Y-107694000D02*
X70758267Y-107694000D01*
X70465733Y-108714000D02*
X70758267Y-108714000D01*
%TO.C,F2*%
X41793748Y-39810000D02*
X44566252Y-39810000D01*
X41793748Y-36390000D02*
X44566252Y-36390000D01*
%TO.C,C2*%
X70758267Y-92966000D02*
X70465733Y-92966000D01*
X70758267Y-91946000D02*
X70465733Y-91946000D01*
%TO.C,D2*%
X49270000Y-94370000D02*
X43570000Y-94370000D01*
X49270000Y-98670000D02*
X43570000Y-98670000D01*
X49270000Y-94370000D02*
X49270000Y-98670000D01*
%TO.C,C3*%
X65784000Y-101492267D02*
X65784000Y-101199733D01*
X66804000Y-101492267D02*
X66804000Y-101199733D01*
%TO.C,F1*%
X44566252Y-105850000D02*
X41793748Y-105850000D01*
X44566252Y-102430000D02*
X41793748Y-102430000D01*
%TD*%
M02*
