%TF.GenerationSoftware,KiCad,Pcbnew,(6.0.8)*%
%TF.CreationDate,2022-11-09T11:36:30+07:00*%
%TF.ProjectId,SPEED_CONTROL,53504545-445f-4434-9f4e-54524f4c2e6b,rev?*%
%TF.SameCoordinates,Original*%
%TF.FileFunction,Legend,Top*%
%TF.FilePolarity,Positive*%
%FSLAX46Y46*%
G04 Gerber Fmt 4.6, Leading zero omitted, Abs format (unit mm)*
G04 Created by KiCad (PCBNEW (6.0.8)) date 2022-11-09 11:36:30*
%MOMM*%
%LPD*%
G01*
G04 APERTURE LIST*
%ADD10C,0.150000*%
%ADD11C,0.120000*%
G04 APERTURE END LIST*
D10*
%TO.C,RV2*%
X133986380Y-40981238D02*
X133510190Y-41314571D01*
X133986380Y-41552666D02*
X132986380Y-41552666D01*
X132986380Y-41171714D01*
X133034000Y-41076476D01*
X133081619Y-41028857D01*
X133176857Y-40981238D01*
X133319714Y-40981238D01*
X133414952Y-41028857D01*
X133462571Y-41076476D01*
X133510190Y-41171714D01*
X133510190Y-41552666D01*
X132986380Y-40695523D02*
X133986380Y-40362190D01*
X132986380Y-40028857D01*
X133081619Y-39743142D02*
X133034000Y-39695523D01*
X132986380Y-39600285D01*
X132986380Y-39362190D01*
X133034000Y-39266952D01*
X133081619Y-39219333D01*
X133176857Y-39171714D01*
X133272095Y-39171714D01*
X133414952Y-39219333D01*
X133986380Y-39790761D01*
X133986380Y-39171714D01*
%TO.C,R2*%
X63952380Y-56046666D02*
X63476190Y-56380000D01*
X63952380Y-56618095D02*
X62952380Y-56618095D01*
X62952380Y-56237142D01*
X63000000Y-56141904D01*
X63047619Y-56094285D01*
X63142857Y-56046666D01*
X63285714Y-56046666D01*
X63380952Y-56094285D01*
X63428571Y-56141904D01*
X63476190Y-56237142D01*
X63476190Y-56618095D01*
X63047619Y-55665714D02*
X63000000Y-55618095D01*
X62952380Y-55522857D01*
X62952380Y-55284761D01*
X63000000Y-55189523D01*
X63047619Y-55141904D01*
X63142857Y-55094285D01*
X63238095Y-55094285D01*
X63380952Y-55141904D01*
X63952380Y-55713333D01*
X63952380Y-55094285D01*
%TO.C,R3*%
X118816380Y-59094666D02*
X118340190Y-59428000D01*
X118816380Y-59666095D02*
X117816380Y-59666095D01*
X117816380Y-59285142D01*
X117864000Y-59189904D01*
X117911619Y-59142285D01*
X118006857Y-59094666D01*
X118149714Y-59094666D01*
X118244952Y-59142285D01*
X118292571Y-59189904D01*
X118340190Y-59285142D01*
X118340190Y-59666095D01*
X117816380Y-58761333D02*
X117816380Y-58142285D01*
X118197333Y-58475619D01*
X118197333Y-58332761D01*
X118244952Y-58237523D01*
X118292571Y-58189904D01*
X118387809Y-58142285D01*
X118625904Y-58142285D01*
X118721142Y-58189904D01*
X118768761Y-58237523D01*
X118816380Y-58332761D01*
X118816380Y-58618476D01*
X118768761Y-58713714D01*
X118721142Y-58761333D01*
%TO.C,DS1*%
X79329714Y-65612880D02*
X79329714Y-64612880D01*
X79567809Y-64612880D01*
X79710666Y-64660500D01*
X79805904Y-64755738D01*
X79853523Y-64850976D01*
X79901142Y-65041452D01*
X79901142Y-65184309D01*
X79853523Y-65374785D01*
X79805904Y-65470023D01*
X79710666Y-65565261D01*
X79567809Y-65612880D01*
X79329714Y-65612880D01*
X80282095Y-65565261D02*
X80424952Y-65612880D01*
X80663047Y-65612880D01*
X80758285Y-65565261D01*
X80805904Y-65517642D01*
X80853523Y-65422404D01*
X80853523Y-65327166D01*
X80805904Y-65231928D01*
X80758285Y-65184309D01*
X80663047Y-65136690D01*
X80472571Y-65089071D01*
X80377333Y-65041452D01*
X80329714Y-64993833D01*
X80282095Y-64898595D01*
X80282095Y-64803357D01*
X80329714Y-64708119D01*
X80377333Y-64660500D01*
X80472571Y-64612880D01*
X80710666Y-64612880D01*
X80853523Y-64660500D01*
X81805904Y-65612880D02*
X81234476Y-65612880D01*
X81520190Y-65612880D02*
X81520190Y-64612880D01*
X81424952Y-64755738D01*
X81329714Y-64850976D01*
X81234476Y-64898595D01*
%TO.C,H1*%
X161798095Y-26732380D02*
X161798095Y-25732380D01*
X161798095Y-26208571D02*
X162369523Y-26208571D01*
X162369523Y-26732380D02*
X162369523Y-25732380D01*
X163369523Y-26732380D02*
X162798095Y-26732380D01*
X163083809Y-26732380D02*
X163083809Y-25732380D01*
X162988571Y-25875238D01*
X162893333Y-25970476D01*
X162798095Y-26018095D01*
%TO.C,R5*%
X65873333Y-84442380D02*
X65540000Y-83966190D01*
X65301904Y-84442380D02*
X65301904Y-83442380D01*
X65682857Y-83442380D01*
X65778095Y-83490000D01*
X65825714Y-83537619D01*
X65873333Y-83632857D01*
X65873333Y-83775714D01*
X65825714Y-83870952D01*
X65778095Y-83918571D01*
X65682857Y-83966190D01*
X65301904Y-83966190D01*
X66778095Y-83442380D02*
X66301904Y-83442380D01*
X66254285Y-83918571D01*
X66301904Y-83870952D01*
X66397142Y-83823333D01*
X66635238Y-83823333D01*
X66730476Y-83870952D01*
X66778095Y-83918571D01*
X66825714Y-84013809D01*
X66825714Y-84251904D01*
X66778095Y-84347142D01*
X66730476Y-84394761D01*
X66635238Y-84442380D01*
X66397142Y-84442380D01*
X66301904Y-84394761D01*
X66254285Y-84347142D01*
%TO.C,J3*%
X65666666Y-118832380D02*
X65666666Y-119546666D01*
X65619047Y-119689523D01*
X65523809Y-119784761D01*
X65380952Y-119832380D01*
X65285714Y-119832380D01*
X66047619Y-118832380D02*
X66666666Y-118832380D01*
X66333333Y-119213333D01*
X66476190Y-119213333D01*
X66571428Y-119260952D01*
X66619047Y-119308571D01*
X66666666Y-119403809D01*
X66666666Y-119641904D01*
X66619047Y-119737142D01*
X66571428Y-119784761D01*
X66476190Y-119832380D01*
X66190476Y-119832380D01*
X66095238Y-119784761D01*
X66047619Y-119737142D01*
%TO.C,H2*%
X161798095Y-118172380D02*
X161798095Y-117172380D01*
X161798095Y-117648571D02*
X162369523Y-117648571D01*
X162369523Y-118172380D02*
X162369523Y-117172380D01*
X162798095Y-117267619D02*
X162845714Y-117220000D01*
X162940952Y-117172380D01*
X163179047Y-117172380D01*
X163274285Y-117220000D01*
X163321904Y-117267619D01*
X163369523Y-117362857D01*
X163369523Y-117458095D01*
X163321904Y-117600952D01*
X162750476Y-118172380D01*
X163369523Y-118172380D01*
%TO.C,H4*%
X34798095Y-26732380D02*
X34798095Y-25732380D01*
X34798095Y-26208571D02*
X35369523Y-26208571D01*
X35369523Y-26732380D02*
X35369523Y-25732380D01*
X36274285Y-26065714D02*
X36274285Y-26732380D01*
X36036190Y-25684761D02*
X35798095Y-26399047D01*
X36417142Y-26399047D01*
%TO.C,J2*%
X65706666Y-88562380D02*
X65706666Y-89276666D01*
X65659047Y-89419523D01*
X65563809Y-89514761D01*
X65420952Y-89562380D01*
X65325714Y-89562380D01*
X66135238Y-88657619D02*
X66182857Y-88610000D01*
X66278095Y-88562380D01*
X66516190Y-88562380D01*
X66611428Y-88610000D01*
X66659047Y-88657619D01*
X66706666Y-88752857D01*
X66706666Y-88848095D01*
X66659047Y-88990952D01*
X66087619Y-89562380D01*
X66706666Y-89562380D01*
%TO.C,R6*%
X72223333Y-100147380D02*
X71890000Y-99671190D01*
X71651904Y-100147380D02*
X71651904Y-99147380D01*
X72032857Y-99147380D01*
X72128095Y-99195000D01*
X72175714Y-99242619D01*
X72223333Y-99337857D01*
X72223333Y-99480714D01*
X72175714Y-99575952D01*
X72128095Y-99623571D01*
X72032857Y-99671190D01*
X71651904Y-99671190D01*
X73080476Y-99147380D02*
X72890000Y-99147380D01*
X72794761Y-99195000D01*
X72747142Y-99242619D01*
X72651904Y-99385476D01*
X72604285Y-99575952D01*
X72604285Y-99956904D01*
X72651904Y-100052142D01*
X72699523Y-100099761D01*
X72794761Y-100147380D01*
X72985238Y-100147380D01*
X73080476Y-100099761D01*
X73128095Y-100052142D01*
X73175714Y-99956904D01*
X73175714Y-99718809D01*
X73128095Y-99623571D01*
X73080476Y-99575952D01*
X72985238Y-99528333D01*
X72794761Y-99528333D01*
X72699523Y-99575952D01*
X72651904Y-99623571D01*
X72604285Y-99718809D01*
%TO.C,R4*%
X148931333Y-63952380D02*
X148598000Y-63476190D01*
X148359904Y-63952380D02*
X148359904Y-62952380D01*
X148740857Y-62952380D01*
X148836095Y-63000000D01*
X148883714Y-63047619D01*
X148931333Y-63142857D01*
X148931333Y-63285714D01*
X148883714Y-63380952D01*
X148836095Y-63428571D01*
X148740857Y-63476190D01*
X148359904Y-63476190D01*
X149788476Y-63285714D02*
X149788476Y-63952380D01*
X149550380Y-62904761D02*
X149312285Y-63619047D01*
X149931333Y-63619047D01*
%TO.C,J5*%
X60622380Y-81613333D02*
X61336666Y-81613333D01*
X61479523Y-81660952D01*
X61574761Y-81756190D01*
X61622380Y-81899047D01*
X61622380Y-81994285D01*
X60622380Y-80660952D02*
X60622380Y-81137142D01*
X61098571Y-81184761D01*
X61050952Y-81137142D01*
X61003333Y-81041904D01*
X61003333Y-80803809D01*
X61050952Y-80708571D01*
X61098571Y-80660952D01*
X61193809Y-80613333D01*
X61431904Y-80613333D01*
X61527142Y-80660952D01*
X61574761Y-80708571D01*
X61622380Y-80803809D01*
X61622380Y-81041904D01*
X61574761Y-81137142D01*
X61527142Y-81184761D01*
%TO.C,D3*%
X70381904Y-58872380D02*
X70381904Y-57872380D01*
X70620000Y-57872380D01*
X70762857Y-57920000D01*
X70858095Y-58015238D01*
X70905714Y-58110476D01*
X70953333Y-58300952D01*
X70953333Y-58443809D01*
X70905714Y-58634285D01*
X70858095Y-58729523D01*
X70762857Y-58824761D01*
X70620000Y-58872380D01*
X70381904Y-58872380D01*
X71286666Y-57872380D02*
X71905714Y-57872380D01*
X71572380Y-58253333D01*
X71715238Y-58253333D01*
X71810476Y-58300952D01*
X71858095Y-58348571D01*
X71905714Y-58443809D01*
X71905714Y-58681904D01*
X71858095Y-58777142D01*
X71810476Y-58824761D01*
X71715238Y-58872380D01*
X71429523Y-58872380D01*
X71334285Y-58824761D01*
X71286666Y-58777142D01*
%TO.C,RV6*%
X73318761Y-71318380D02*
X72985428Y-70842190D01*
X72747333Y-71318380D02*
X72747333Y-70318380D01*
X73128285Y-70318380D01*
X73223523Y-70366000D01*
X73271142Y-70413619D01*
X73318761Y-70508857D01*
X73318761Y-70651714D01*
X73271142Y-70746952D01*
X73223523Y-70794571D01*
X73128285Y-70842190D01*
X72747333Y-70842190D01*
X73604476Y-70318380D02*
X73937809Y-71318380D01*
X74271142Y-70318380D01*
X75033047Y-70318380D02*
X74842571Y-70318380D01*
X74747333Y-70366000D01*
X74699714Y-70413619D01*
X74604476Y-70556476D01*
X74556857Y-70746952D01*
X74556857Y-71127904D01*
X74604476Y-71223142D01*
X74652095Y-71270761D01*
X74747333Y-71318380D01*
X74937809Y-71318380D01*
X75033047Y-71270761D01*
X75080666Y-71223142D01*
X75128285Y-71127904D01*
X75128285Y-70889809D01*
X75080666Y-70794571D01*
X75033047Y-70746952D01*
X74937809Y-70699333D01*
X74747333Y-70699333D01*
X74652095Y-70746952D01*
X74604476Y-70794571D01*
X74556857Y-70889809D01*
%TO.C,BZ1*%
X137803047Y-58856571D02*
X137945904Y-58904190D01*
X137993523Y-58951809D01*
X138041142Y-59047047D01*
X138041142Y-59189904D01*
X137993523Y-59285142D01*
X137945904Y-59332761D01*
X137850666Y-59380380D01*
X137469714Y-59380380D01*
X137469714Y-58380380D01*
X137803047Y-58380380D01*
X137898285Y-58428000D01*
X137945904Y-58475619D01*
X137993523Y-58570857D01*
X137993523Y-58666095D01*
X137945904Y-58761333D01*
X137898285Y-58808952D01*
X137803047Y-58856571D01*
X137469714Y-58856571D01*
X138374476Y-58380380D02*
X139041142Y-58380380D01*
X138374476Y-59380380D01*
X139041142Y-59380380D01*
X139945904Y-59380380D02*
X139374476Y-59380380D01*
X139660190Y-59380380D02*
X139660190Y-58380380D01*
X139564952Y-58523238D01*
X139469714Y-58618476D01*
X139374476Y-58666095D01*
X141295428Y-61848952D02*
X141295428Y-61087047D01*
X141676380Y-61468000D02*
X140914476Y-61468000D01*
%TO.C,J4*%
X47926666Y-108418380D02*
X47926666Y-109132666D01*
X47879047Y-109275523D01*
X47783809Y-109370761D01*
X47640952Y-109418380D01*
X47545714Y-109418380D01*
X48831428Y-108751714D02*
X48831428Y-109418380D01*
X48593333Y-108370761D02*
X48355238Y-109085047D01*
X48974285Y-109085047D01*
%TO.C,RV1*%
X88266380Y-40981238D02*
X87790190Y-41314571D01*
X88266380Y-41552666D02*
X87266380Y-41552666D01*
X87266380Y-41171714D01*
X87314000Y-41076476D01*
X87361619Y-41028857D01*
X87456857Y-40981238D01*
X87599714Y-40981238D01*
X87694952Y-41028857D01*
X87742571Y-41076476D01*
X87790190Y-41171714D01*
X87790190Y-41552666D01*
X87266380Y-40695523D02*
X88266380Y-40362190D01*
X87266380Y-40028857D01*
X88266380Y-39171714D02*
X88266380Y-39743142D01*
X88266380Y-39457428D02*
X87266380Y-39457428D01*
X87409238Y-39552666D01*
X87504476Y-39647904D01*
X87552095Y-39743142D01*
%TO.C,R1*%
X123896380Y-59094666D02*
X123420190Y-59428000D01*
X123896380Y-59666095D02*
X122896380Y-59666095D01*
X122896380Y-59285142D01*
X122944000Y-59189904D01*
X122991619Y-59142285D01*
X123086857Y-59094666D01*
X123229714Y-59094666D01*
X123324952Y-59142285D01*
X123372571Y-59189904D01*
X123420190Y-59285142D01*
X123420190Y-59666095D01*
X123896380Y-58142285D02*
X123896380Y-58713714D01*
X123896380Y-58428000D02*
X122896380Y-58428000D01*
X123039238Y-58523238D01*
X123134476Y-58618476D01*
X123182095Y-58713714D01*
%TO.C,RV3*%
X118746380Y-40981238D02*
X118270190Y-41314571D01*
X118746380Y-41552666D02*
X117746380Y-41552666D01*
X117746380Y-41171714D01*
X117794000Y-41076476D01*
X117841619Y-41028857D01*
X117936857Y-40981238D01*
X118079714Y-40981238D01*
X118174952Y-41028857D01*
X118222571Y-41076476D01*
X118270190Y-41171714D01*
X118270190Y-41552666D01*
X117746380Y-40695523D02*
X118746380Y-40362190D01*
X117746380Y-40028857D01*
X117746380Y-39790761D02*
X117746380Y-39171714D01*
X118127333Y-39505047D01*
X118127333Y-39362190D01*
X118174952Y-39266952D01*
X118222571Y-39219333D01*
X118317809Y-39171714D01*
X118555904Y-39171714D01*
X118651142Y-39219333D01*
X118698761Y-39266952D01*
X118746380Y-39362190D01*
X118746380Y-39647904D01*
X118698761Y-39743142D01*
X118651142Y-39790761D01*
%TO.C,RV5*%
X72986380Y-40981238D02*
X72510190Y-41314571D01*
X72986380Y-41552666D02*
X71986380Y-41552666D01*
X71986380Y-41171714D01*
X72034000Y-41076476D01*
X72081619Y-41028857D01*
X72176857Y-40981238D01*
X72319714Y-40981238D01*
X72414952Y-41028857D01*
X72462571Y-41076476D01*
X72510190Y-41171714D01*
X72510190Y-41552666D01*
X71986380Y-40695523D02*
X72986380Y-40362190D01*
X71986380Y-40028857D01*
X71986380Y-39219333D02*
X71986380Y-39695523D01*
X72462571Y-39743142D01*
X72414952Y-39695523D01*
X72367333Y-39600285D01*
X72367333Y-39362190D01*
X72414952Y-39266952D01*
X72462571Y-39219333D01*
X72557809Y-39171714D01*
X72795904Y-39171714D01*
X72891142Y-39219333D01*
X72938761Y-39266952D01*
X72986380Y-39362190D01*
X72986380Y-39600285D01*
X72938761Y-39695523D01*
X72891142Y-39743142D01*
%TO.C,D1*%
X128039904Y-56586380D02*
X128039904Y-55586380D01*
X128278000Y-55586380D01*
X128420857Y-55634000D01*
X128516095Y-55729238D01*
X128563714Y-55824476D01*
X128611333Y-56014952D01*
X128611333Y-56157809D01*
X128563714Y-56348285D01*
X128516095Y-56443523D01*
X128420857Y-56538761D01*
X128278000Y-56586380D01*
X128039904Y-56586380D01*
X129563714Y-56586380D02*
X128992285Y-56586380D01*
X129278000Y-56586380D02*
X129278000Y-55586380D01*
X129182761Y-55729238D01*
X129087523Y-55824476D01*
X128992285Y-55872095D01*
%TO.C,U2*%
X48212380Y-71881904D02*
X49021904Y-71881904D01*
X49117142Y-71834285D01*
X49164761Y-71786666D01*
X49212380Y-71691428D01*
X49212380Y-71500952D01*
X49164761Y-71405714D01*
X49117142Y-71358095D01*
X49021904Y-71310476D01*
X48212380Y-71310476D01*
X48307619Y-70881904D02*
X48260000Y-70834285D01*
X48212380Y-70739047D01*
X48212380Y-70500952D01*
X48260000Y-70405714D01*
X48307619Y-70358095D01*
X48402857Y-70310476D01*
X48498095Y-70310476D01*
X48640952Y-70358095D01*
X49212380Y-70929523D01*
X49212380Y-70310476D01*
%TO.C,H3*%
X34798095Y-118172380D02*
X34798095Y-117172380D01*
X34798095Y-117648571D02*
X35369523Y-117648571D01*
X35369523Y-118172380D02*
X35369523Y-117172380D01*
X35750476Y-117172380D02*
X36369523Y-117172380D01*
X36036190Y-117553333D01*
X36179047Y-117553333D01*
X36274285Y-117600952D01*
X36321904Y-117648571D01*
X36369523Y-117743809D01*
X36369523Y-117981904D01*
X36321904Y-118077142D01*
X36274285Y-118124761D01*
X36179047Y-118172380D01*
X35893333Y-118172380D01*
X35798095Y-118124761D01*
X35750476Y-118077142D01*
%TO.C,Q1*%
X148494761Y-55411619D02*
X148399523Y-55364000D01*
X148304285Y-55268761D01*
X148161428Y-55125904D01*
X148066190Y-55078285D01*
X147970952Y-55078285D01*
X148018571Y-55316380D02*
X147923333Y-55268761D01*
X147828095Y-55173523D01*
X147780476Y-54983047D01*
X147780476Y-54649714D01*
X147828095Y-54459238D01*
X147923333Y-54364000D01*
X148018571Y-54316380D01*
X148209047Y-54316380D01*
X148304285Y-54364000D01*
X148399523Y-54459238D01*
X148447142Y-54649714D01*
X148447142Y-54983047D01*
X148399523Y-55173523D01*
X148304285Y-55268761D01*
X148209047Y-55316380D01*
X148018571Y-55316380D01*
X149399523Y-55316380D02*
X148828095Y-55316380D01*
X149113809Y-55316380D02*
X149113809Y-54316380D01*
X149018571Y-54459238D01*
X148923333Y-54554476D01*
X148828095Y-54602095D01*
%TO.C,RV4*%
X103506380Y-40981238D02*
X103030190Y-41314571D01*
X103506380Y-41552666D02*
X102506380Y-41552666D01*
X102506380Y-41171714D01*
X102554000Y-41076476D01*
X102601619Y-41028857D01*
X102696857Y-40981238D01*
X102839714Y-40981238D01*
X102934952Y-41028857D01*
X102982571Y-41076476D01*
X103030190Y-41171714D01*
X103030190Y-41552666D01*
X102506380Y-40695523D02*
X103506380Y-40362190D01*
X102506380Y-40028857D01*
X102839714Y-39266952D02*
X103506380Y-39266952D01*
X102458761Y-39505047D02*
X103173047Y-39743142D01*
X103173047Y-39124095D01*
%TO.C,J1*%
X80946666Y-119594380D02*
X80946666Y-120308666D01*
X80899047Y-120451523D01*
X80803809Y-120546761D01*
X80660952Y-120594380D01*
X80565714Y-120594380D01*
X81946666Y-120594380D02*
X81375238Y-120594380D01*
X81660952Y-120594380D02*
X81660952Y-119594380D01*
X81565714Y-119737238D01*
X81470476Y-119832476D01*
X81375238Y-119880095D01*
D11*
%TO.C,RV2*%
X142055000Y-45556000D02*
X142814000Y-45556000D01*
X136163000Y-33316000D02*
X146204000Y-33316000D01*
X146204000Y-37252000D02*
X146204000Y-33316000D01*
X136163000Y-37252000D02*
X136163000Y-33316000D01*
X136163000Y-45556000D02*
X137484000Y-45556000D01*
X136163000Y-45556000D02*
X136163000Y-41619000D01*
X146204000Y-45556000D02*
X146204000Y-41619000D01*
X144554000Y-45556000D02*
X146204000Y-45556000D01*
X139934000Y-45556000D02*
X140314000Y-45556000D01*
%TO.C,R2*%
X62130000Y-52610000D02*
X62130000Y-59150000D01*
X62130000Y-59150000D02*
X62460000Y-59150000D01*
X64540000Y-52610000D02*
X64870000Y-52610000D01*
X64870000Y-52610000D02*
X64870000Y-59150000D01*
X64870000Y-59150000D02*
X64540000Y-59150000D01*
X62460000Y-52610000D02*
X62130000Y-52610000D01*
%TO.C,R3*%
X119734000Y-55658000D02*
X119734000Y-62198000D01*
X117324000Y-55658000D02*
X116994000Y-55658000D01*
X119404000Y-55658000D02*
X119734000Y-55658000D01*
X119734000Y-62198000D02*
X119404000Y-62198000D01*
X116994000Y-55658000D02*
X116994000Y-62198000D01*
X116994000Y-62198000D02*
X117324000Y-62198000D01*
%TO.C,DS1*%
X78224000Y-102610500D02*
X158504000Y-102610500D01*
X86564000Y-76970500D02*
X150064000Y-76970500D01*
X84864000Y-65970500D02*
X87864000Y-65970500D01*
X154364000Y-96970500D02*
X81364000Y-96970500D01*
X150064660Y-91970500D02*
X86564000Y-91970500D01*
X81364000Y-96970500D02*
X81364000Y-71970500D01*
X86064280Y-91469820D02*
X86064280Y-77470500D01*
X150564000Y-77470500D02*
X150564000Y-91470500D01*
X78224000Y-66330500D02*
X78224000Y-102610500D01*
X158504000Y-66330500D02*
X79024000Y-66330500D01*
X154364000Y-71970500D02*
X154364000Y-96970500D01*
X81364000Y-71970500D02*
X154364000Y-71970500D01*
X78234000Y-66330500D02*
X79024000Y-66330500D01*
X158504000Y-102610500D02*
X158504000Y-66330500D01*
X150564000Y-77470500D02*
G75*
G03*
X150064000Y-76970500I-500000J0D01*
G01*
X150064660Y-91970240D02*
G75*
G03*
X150565040Y-91469820I-60J500440D01*
G01*
X86564660Y-76968960D02*
G75*
G03*
X86064280Y-77469340I0J-500380D01*
G01*
X86064280Y-91469820D02*
G75*
G03*
X86564660Y-91970200I500380J0D01*
G01*
%TO.C,R5*%
X69310000Y-84990000D02*
X69310000Y-85320000D01*
X62770000Y-87730000D02*
X69310000Y-87730000D01*
X62770000Y-84990000D02*
X69310000Y-84990000D01*
X62770000Y-87400000D02*
X62770000Y-87730000D01*
X69310000Y-87730000D02*
X69310000Y-87400000D01*
X62770000Y-85320000D02*
X62770000Y-84990000D01*
%TO.C,J3*%
X60940000Y-125980000D02*
X71060000Y-125980000D01*
X67490000Y-123136000D02*
X67431000Y-123194000D01*
X60940000Y-116860000D02*
X60940000Y-125980000D01*
X60940000Y-124420000D02*
X71060000Y-124420000D01*
X60700000Y-126220000D02*
X62200000Y-126220000D01*
X60940000Y-116860000D02*
X71060000Y-116860000D01*
X71060000Y-116860000D02*
X71060000Y-125980000D01*
X60700000Y-124480000D02*
X60700000Y-126220000D01*
X69570000Y-120645000D02*
X69511000Y-120704000D01*
X67320000Y-122896000D02*
X67226000Y-122989000D01*
X69775000Y-120851000D02*
X69681000Y-120944000D01*
X64289000Y-120436000D02*
G75*
G03*
X62710911Y-120436047I-789000J-1483995D01*
G01*
X62711000Y-123404000D02*
G75*
G03*
X63529383Y-123600450I788998J1483995D01*
G01*
X64984001Y-122709000D02*
G75*
G03*
X64983953Y-121130911I-1484001J789000D01*
G01*
X63500000Y-123600000D02*
G75*
G03*
X64288712Y-123403352I0J1680000D01*
G01*
X62016000Y-121131000D02*
G75*
G03*
X62016047Y-122709089I1483995J-789000D01*
G01*
X70180000Y-121920000D02*
G75*
G03*
X70180000Y-121920000I-1680000J0D01*
G01*
X64400000Y-118920000D02*
G75*
G03*
X64400000Y-118920000I-900000J0D01*
G01*
X69400000Y-118920000D02*
G75*
G03*
X69400000Y-118920000I-900000J0D01*
G01*
%TO.C,J2*%
X64710000Y-92710000D02*
X67370000Y-92710000D01*
X64710000Y-91440000D02*
X64710000Y-90110000D01*
X64710000Y-95310000D02*
X67370000Y-95310000D01*
X64710000Y-90110000D02*
X66040000Y-90110000D01*
X67370000Y-92710000D02*
X67370000Y-95310000D01*
X64710000Y-92710000D02*
X64710000Y-95310000D01*
%TO.C,R6*%
X68226000Y-96298000D02*
X68556000Y-96298000D01*
X68226000Y-102838000D02*
X68226000Y-96298000D01*
X70966000Y-102838000D02*
X70966000Y-96298000D01*
X68556000Y-102838000D02*
X68226000Y-102838000D01*
X70966000Y-96298000D02*
X70636000Y-96298000D01*
X70636000Y-102838000D02*
X70966000Y-102838000D01*
%TO.C,R4*%
X152368000Y-64870000D02*
X152368000Y-64540000D01*
X145828000Y-62460000D02*
X145828000Y-62130000D01*
X145828000Y-64870000D02*
X152368000Y-64870000D01*
X152368000Y-62130000D02*
X152368000Y-62460000D01*
X145828000Y-62130000D02*
X152368000Y-62130000D01*
X145828000Y-64540000D02*
X145828000Y-64870000D01*
%TO.C,J5*%
X63500000Y-82610000D02*
X62170000Y-82610000D01*
X64770000Y-79950000D02*
X69910000Y-79950000D01*
X62170000Y-82610000D02*
X62170000Y-81280000D01*
X64770000Y-82610000D02*
X69910000Y-82610000D01*
X69910000Y-82610000D02*
X69910000Y-79950000D01*
X64770000Y-82610000D02*
X64770000Y-79950000D01*
%TO.C,D3*%
X69816000Y-54320000D02*
X69660000Y-54320000D01*
X67500000Y-54320000D02*
X67344000Y-54320000D01*
X67344484Y-54320000D02*
G75*
G03*
X67501392Y-57552335I1235516J-1560000D01*
G01*
X69659837Y-56921130D02*
G75*
G03*
X69660000Y-54839039I-1079837J1041130D01*
G01*
X69658608Y-57552335D02*
G75*
G03*
X69815516Y-54320000I-1078608J1672335D01*
G01*
X67500000Y-54839039D02*
G75*
G03*
X67500163Y-56921130I1080000J-1040961D01*
G01*
%TO.C,RV6*%
X76454000Y-81593000D02*
X76454000Y-71823000D01*
X71384000Y-81593000D02*
X71384000Y-71823000D01*
X71384000Y-71823000D02*
X76454000Y-71823000D01*
X71384000Y-81593000D02*
X76454000Y-81593000D01*
%TO.C,BZ1*%
X144784000Y-58928000D02*
G75*
G03*
X144784000Y-58928000I-6100000J0D01*
G01*
%TO.C,J4*%
X40410000Y-110150000D02*
X40410000Y-118450000D01*
X56110000Y-115900000D02*
X56110000Y-112750000D01*
X53260000Y-118450000D02*
X56110000Y-115900000D01*
X53260000Y-110150000D02*
X40410000Y-110150000D01*
X40410000Y-118450000D02*
X53260000Y-118450000D01*
X56110000Y-112750000D02*
X53260000Y-110150000D01*
%TO.C,RV1*%
X94214000Y-45556000D02*
X94594000Y-45556000D01*
X90443000Y-37252000D02*
X90443000Y-33316000D01*
X98834000Y-45556000D02*
X100484000Y-45556000D01*
X90443000Y-33316000D02*
X100484000Y-33316000D01*
X90443000Y-45556000D02*
X90443000Y-41619000D01*
X96335000Y-45556000D02*
X97094000Y-45556000D01*
X90443000Y-45556000D02*
X91764000Y-45556000D01*
X100484000Y-45556000D02*
X100484000Y-41619000D01*
X100484000Y-37252000D02*
X100484000Y-33316000D01*
%TO.C,R1*%
X124814000Y-62198000D02*
X124484000Y-62198000D01*
X122074000Y-62198000D02*
X122404000Y-62198000D01*
X122404000Y-55658000D02*
X122074000Y-55658000D01*
X124814000Y-55658000D02*
X124814000Y-62198000D01*
X124484000Y-55658000D02*
X124814000Y-55658000D01*
X122074000Y-55658000D02*
X122074000Y-62198000D01*
%TO.C,RV3*%
X129314000Y-45556000D02*
X130964000Y-45556000D01*
X130964000Y-45556000D02*
X130964000Y-41619000D01*
X124694000Y-45556000D02*
X125074000Y-45556000D01*
X120923000Y-33316000D02*
X130964000Y-33316000D01*
X120923000Y-37252000D02*
X120923000Y-33316000D01*
X120923000Y-45556000D02*
X122244000Y-45556000D01*
X126815000Y-45556000D02*
X127574000Y-45556000D01*
X130964000Y-37252000D02*
X130964000Y-33316000D01*
X120923000Y-45556000D02*
X120923000Y-41619000D01*
%TO.C,RV5*%
X85204000Y-45556000D02*
X85204000Y-41619000D01*
X78934000Y-45556000D02*
X79314000Y-45556000D01*
X75163000Y-45556000D02*
X75163000Y-41619000D01*
X83554000Y-45556000D02*
X85204000Y-45556000D01*
X81055000Y-45556000D02*
X81814000Y-45556000D01*
X75163000Y-33316000D02*
X85204000Y-33316000D01*
X75163000Y-45556000D02*
X76484000Y-45556000D01*
X75163000Y-37252000D02*
X75163000Y-33316000D01*
X85204000Y-37252000D02*
X85204000Y-33316000D01*
%TO.C,D1*%
X127698000Y-57871000D02*
X127542000Y-57871000D01*
X130014000Y-57871000D02*
X129858000Y-57871000D01*
X129857837Y-60472130D02*
G75*
G03*
X129858000Y-58390039I-1079837J1041130D01*
G01*
X129856608Y-61103335D02*
G75*
G03*
X130013516Y-57871000I-1078608J1672335D01*
G01*
X127542484Y-57871000D02*
G75*
G03*
X127699392Y-61103335I1235516J-1560000D01*
G01*
X127698000Y-58390039D02*
G75*
G03*
X127698163Y-60472130I1080000J-1040961D01*
G01*
D10*
%TO.C,U2*%
X36260000Y-44120000D02*
X36260000Y-98120000D01*
X60260000Y-98120000D02*
X60260000Y-44120000D01*
X60260000Y-44120000D02*
X48260000Y-44120000D01*
X48260000Y-44120000D02*
X36260000Y-44120000D01*
X36260000Y-98120000D02*
X60260000Y-98120000D01*
D11*
%TO.C,Q1*%
X146740000Y-56620000D02*
X146740000Y-60220000D01*
X151190001Y-58420000D02*
G75*
G03*
X146751522Y-56581522I-2600001J0D01*
G01*
X146751522Y-60258478D02*
G75*
G03*
X151190000Y-58420000I1838478J1838478D01*
G01*
%TO.C,RV4*%
X114074000Y-45556000D02*
X115724000Y-45556000D01*
X105683000Y-33316000D02*
X115724000Y-33316000D01*
X105683000Y-37252000D02*
X105683000Y-33316000D01*
X105683000Y-45556000D02*
X107004000Y-45556000D01*
X105683000Y-45556000D02*
X105683000Y-41619000D01*
X109454000Y-45556000D02*
X109834000Y-45556000D01*
X115724000Y-37252000D02*
X115724000Y-33316000D01*
X111575000Y-45556000D02*
X112334000Y-45556000D01*
X115724000Y-45556000D02*
X115724000Y-41619000D01*
%TO.C,J1*%
X80025000Y-118170000D02*
X80025000Y-115510000D01*
X80025000Y-115510000D02*
X85165000Y-115510000D01*
X78755000Y-118170000D02*
X77425000Y-118170000D01*
X77425000Y-118170000D02*
X77425000Y-116840000D01*
X85165000Y-118170000D02*
X85165000Y-115510000D01*
X80025000Y-118170000D02*
X85165000Y-118170000D01*
%TD*%
M02*
